# xmcd
#
# Track frame offsets: 
#        150
#        18139
#        31090
#        59903
#        74612
#        93349
#        111853
#        130816
#        140705
#        153559
#        166588
#        180943
#
# Disc length: 2632 seconds
#
# Revision: 1
# Processed by: cddbd v1.5.2PL0 Copyright (c) Steve Scherf et al.
# Submitted via: ExactAudioCopy v0.99pb5
#
DISCID=9d0a460c
DTITLE=Sexteto Juventud - Lo Mejor Del Sexteto Juventud
DYEAR=1900
DGENRE=Salsa
TTITLE0=Mi Calvario
TTITLE1=Caramelo Y Chocolate
TTITLE2=La Carcel
TTITLE3=Pa La Guajira Me Voy
TTITLE4=Verguenza
TTITLE5=Mala
TTITLE6=Con Todas Las Banderas
TTITLE7=Gusando
TTITLE8=Da Tristeza
TTITLE9=Tostao Y Colao
TTITLE10=Cuando Llora Un Hombre
TTITLE11=Sandra Mora
EXTD=
EXTT0=
EXTT1=
EXTT2=
EXTT3=
EXTT4=
EXTT5=
EXTT6=
EXTT7=
EXTT8=
EXTT9=
EXTT10=
EXTT11=
PLAYORDER=
